#format: frame checksums
#version: 1
#hash: MD5
#tb 0: 1/25
#stream#, dts,        pts, duration,     size, hash
0,          0,          0,        1,   195096, 29ad3287ab4d7f4d46968c6d38ba049b
0,          1,          1,        1,   195040, 2c7b4f5f0aee96dca6dc30ce01b3c74d
0,          2,          2,        1,   196044, 7ffc6ab3c4a2eee436ef6a59c72ffb04
0,          3,          3,        1,   195256, f4453470d77c246cbb30d00c13512359
0,          4,          4,        1,   194856, b84c4d56bf28033db539e4e0cad3d342
0,          5,          5,        1,   195360, d2d3371b96f679f9b7c62d98b5d54af9
0,          6,          6,        1,   195184, 8e3782bc12b24023a5899eb4806ffed6
0,          7,          7,        1,   194812, 4fcf24a0660606304c58c93db2baf7de
0,          8,          8,        1,   195040, 6ab57a9dcb4c99df7848a0971335a6b4
0,          9,          9,        1,   195476, 66a3d66c3dc2f5b0847266a21927fa77
0,         10,         10,        1,   195056, 530b251a8497af21bc56cd73af5c7ddf
0,         11,         11,        1,   195072, 2904d24eca3db9734ed78dc8d557a334
0,         12,         12,        1,   194232, 97566b596b113bf94a12ee1c02058a95
0,         13,         13,        1,   195072, dceefd5df6efc5fefc8cfa1543b1a20e
0,         14,         14,        1,   195348, d5b75f298fa6d474435333467b3497ae
0,         15,         15,        1,   195668, 519f63be313f311cbb3fb48970a19f15
0,         16,         16,        1,   194880, ab2da22767f540f8adea7e43dd6c1d0c
0,         17,         17,        1,   195168, 667b85c19dd2d8ae105594f1294297b9
0,         18,         18,        1,   194448, 575bc4b46f6158e76e503e8028902aaa
0,         19,         19,        1,   194360, 851acbaf04c464689c8e2c4af3b9ed14
0,         20,         20,        1,   193700, 1a477e0d665dcd088da6edeef77f21b1
0,         21,         21,        1,   194008, b0d752c2201235e51ba0bbb59046fa60
0,         22,         22,        1,   194096, 099df2b23c41ee54a6bd11aa6c92c390
0,         23,         23,        1,   195092, e4d4dc89b8afba245355cec57ddcae40
0,         24,         24,        1,   195196, 070c27e0499cf0210d729242ebc1a24e
0,         25,         25,        1,   194912, 0fb78b7892035ecbec6ee9be6a13831c
0,         26,         26,        1,   194768, 3ff6a05e68d6e33eeea22232e71bdf9a
0,         27,         27,        1,   194360, 3828288e90a780d0c338ba5ab046aaa5
0,         28,         28,        1,   193568, 60afb0ae9e6cbc9d8e4081764de7b4e6
0,         29,         29,        1,   193560, 6b22fcfce4bff96b2afcb891f4fa9cf3
0,         30,         30,        1,   193960, cae9eddb4464627fdc4413c3b5159575
0,         31,         31,        1,   194780, 9e3d730fb835d3acaf92b7be368ea89e
0,         32,         32,        1,   194648, 1ac7f5ae1b392ee8630266317a1818df
0,         33,         33,        1,   194944, 374142509500017bbc29e157569bca2f
0,         34,         34,        1,   194736, 0072a43b8de988683340c81e5bd4dba6
0,         35,         35,        1,   194776, d5add7706f49a6a2f8d6bf3ed0ce3410
0,         36,         36,        1,   194784, 7a1d38bc73fd293afef5fbcf9d34decd
0,         37,         37,        1,   194912, 695e2d4c5d613245d591ae58100323bd
0,         38,         38,        1,   194152, d4c9adb4f6340bc5f10b5b13f71d07bd
0,         39,         39,        1,   194172, 0c7419c5c550e784e01a8c9927ecf59a
0,         40,         40,        1,   193608, 4abff529172476d76c2956179041b2e4
0,         41,         41,        1,   194260, dfa07971b01032b6a653d0d6715ffa8c
0,         42,         42,        1,   193916, 6ffe1e68c74d51ea0cba0ede10b0f6f0
0,         43,         43,        1,   194140, 46e18d23810193dd352fcc49b7c5ef6e
0,         44,         44,        1,   193656, 4339d3e8b9dbeb376a1e19c4b86824f3
0,         45,         45,        1,   192964, ff4680c71688f9944cd494105d2ab0b5
0,         46,         46,        1,   192640, 62ce4b6d3311c34c73c6af1399fedfdc
0,         47,         47,        1,   192584, f71b06a232a1a62a45ddac80c6f75090
0,         48,         48,        1,   192360, 6642b9838eb32ed81d4d10a46ab9f954
0,         49,         49,        1,   191916, d3ed1686383cfa7130ecc17c1ab52432
